<svg width="133" height="30" viewBox="0 0 133 30" fill="none" xmlns="http://www.w3.org/2000/svg">
    <mask id="mask0_4_36" style="mask-type:alpha" maskUnits="userSpaceOnUse" x="22" y="0" width="15" height="30">
        <rect x="22" width="15" height="30" fill="#D9D9D9"/>
    </mask>
    <g mask="url(#mask0_4_36)">
        <line x1="22.614" y1="8.68215" x2="36.614" y2="-8.31785" stroke="#D83232"/>
        <line x1="22.614" y1="0.682146" x2="36.614" y2="-16.3179" stroke="#D83232"/>
        <line x1="22.614" y1="2.68215" x2="36.614" y2="-14.3179" stroke="#D83232"/>
        <line x1="22.614" y1="4.68215" x2="36.614" y2="-12.3179" stroke="#D83232"/>
        <line x1="22.614" y1="6.68215" x2="36.614" y2="-10.3179" stroke="#D83232"/>
        <line x1="22.614" y1="36.6821" x2="36.614" y2="19.6821" stroke="#D83232"/>
        <line x1="22.614" y1="38.6821" x2="36.614" y2="21.6821" stroke="#D83232"/>
        <line x1="22.614" y1="40.6821" x2="36.614" y2="23.6821" stroke="#D83232"/>
        <line x1="22.614" y1="42.6821" x2="36.614" y2="25.6821" stroke="#D83232"/>
        <line x1="22.614" y1="44.6821" x2="36.614" y2="27.6821" stroke="#D83232"/>
        <line x1="22.614" y1="46.6821" x2="36.614" y2="29.6821" stroke="#D83232"/>
        <line x1="22.614" y1="22.6821" x2="36.614" y2="5.68215" stroke="#D83232"/>
        <line x1="22.614" y1="24.6821" x2="36.614" y2="7.68215" stroke="#D83232"/>
        <line x1="22.614" y1="26.6821" x2="36.614" y2="9.68215" stroke="#D83232"/>
        <line x1="22.614" y1="28.6821" x2="36.614" y2="11.6821" stroke="#D83232"/>
        <line x1="22.614" y1="30.6821" x2="36.614" y2="13.6821" stroke="#D83232"/>
        <line x1="22.614" y1="32.6821" x2="36.614" y2="15.6821" stroke="#D83232"/>
        <line x1="22.614" y1="34.6821" x2="36.614" y2="17.6821" stroke="#D83232"/>
        <line x1="22.614" y1="10.6821" x2="36.614" y2="-6.31785" stroke="#D83232"/>
        <line x1="22.614" y1="12.6821" x2="36.614" y2="-4.31785" stroke="#D83232"/>
        <line x1="22.614" y1="14.6821" x2="36.614" y2="-2.31785" stroke="#D83232"/>
        <line x1="22.614" y1="16.6821" x2="36.614" y2="-0.317853" stroke="#D83232"/>
        <line x1="22.614" y1="18.6821" x2="36.614" y2="1.68215" stroke="#D83232"/>
        <line x1="22.614" y1="20.6821" x2="36.614" y2="3.68215" stroke="#D83232"/>
    </g>
    <path d="M16.3551 6.54545V24H12.7074V9.54545H5.65057V24H2.00284V6.54545H16.3551ZM22.2686 6.54545H25.9504V17.5227H26.0953L33.6379 6.54545H36.868V24H33.1777V13.0142H33.0499L25.4646 24H22.2686V6.54545ZM52.8767 24L47.2687 16.5597H46.0074V24H42.317V6.54545H46.0074V13.517H46.7489L52.5443 6.54545H57.1381L50.3284 14.642L57.4534 24H52.8767ZM76.1254 12.6562H72.3925C72.3243 12.1733 72.1851 11.7443 71.9749 11.3693C71.7646 10.9886 71.4947 10.6648 71.1652 10.3977C70.8357 10.1307 70.455 9.92614 70.0232 9.78409C69.597 9.64205 69.1339 9.57102 68.6339 9.57102C67.7305 9.57102 66.9436 9.79545 66.2732 10.2443C65.6027 10.6875 65.0828 11.3352 64.7135 12.1875C64.3442 13.0341 64.1595 14.0625 64.1595 15.2727C64.1595 16.517 64.3442 17.5625 64.7135 18.4091C65.0885 19.2557 65.6112 19.8949 66.2817 20.3267C66.9521 20.7585 67.7277 20.9744 68.6084 20.9744C69.1027 20.9744 69.5601 20.9091 69.9805 20.7784C70.4067 20.6477 70.7845 20.4574 71.1141 20.2074C71.4436 19.9517 71.7163 19.642 71.9322 19.2784C72.1538 18.9148 72.3072 18.5 72.3925 18.0341L76.1254 18.0511C76.0288 18.8523 75.7874 19.625 75.401 20.3693C75.0203 21.108 74.5061 21.7699 73.8584 22.3551C73.2163 22.9347 72.4493 23.3949 71.5572 23.7358C70.6709 24.071 69.668 24.2386 68.5487 24.2386C66.9919 24.2386 65.5999 23.8864 64.3726 23.1818C63.151 22.4773 62.1851 21.4574 61.4749 20.1222C60.7703 18.7869 60.418 17.1705 60.418 15.2727C60.418 13.3693 60.776 11.75 61.4919 10.4148C62.2078 9.07955 63.1794 8.0625 64.4067 7.36364C65.6339 6.65909 67.0146 6.30682 68.5487 6.30682C69.5601 6.30682 70.4976 6.44886 71.3612 6.73295C72.2305 7.01705 73.0004 7.43182 73.6709 7.97727C74.3413 8.51704 74.8868 9.17898 75.3072 9.96307C75.7334 10.7472 76.0061 11.6449 76.1254 12.6562ZM81.1717 24V6.54545H92.9331V9.58807H84.8621V13.7472H92.328V16.7898H84.8621V20.9574H92.9672V24H81.1717ZM97.321 24V21.0341L97.8153 20.9915C98.4517 20.9403 98.9659 20.6989 99.358 20.267C99.75 19.8295 100.043 19.1335 100.236 18.179C100.435 17.2188 100.562 15.929 100.619 14.3097L100.909 6.54545H112.756V24H109.168V9.50284H104.335L104.062 15.5795C103.972 17.5341 103.739 19.1307 103.364 20.3693C102.994 21.608 102.403 22.5227 101.591 23.1136C100.784 23.7045 99.679 24 98.2756 24H97.321ZM120.627 12.9972H124.786C126.173 12.9972 127.366 13.2216 128.366 13.6705C129.372 14.1136 130.147 14.7415 130.693 15.554C131.238 16.3665 131.508 17.3239 131.502 18.4261C131.508 19.5227 131.238 20.4915 130.693 21.3324C130.147 22.1676 129.372 22.821 128.366 23.2926C127.366 23.7642 126.173 24 124.786 24H118.266V6.54545H121.948V21.0341H124.786C125.451 21.0341 126.011 20.9148 126.465 20.6761C126.92 20.4318 127.264 20.1108 127.497 19.7131C127.735 19.3097 127.852 18.8693 127.846 18.392C127.852 17.6989 127.59 17.1136 127.062 16.6364C126.539 16.1534 125.781 15.9119 124.786 15.9119H120.627V12.9972Z"
          fill="black"/>
</svg>
