<svg width="266" height="32" viewBox="0 0 266 32" fill="none" xmlns="http://www.w3.org/2000/svg">
<mask id="mask0_45_30" style="mask-type:alpha" maskUnits="userSpaceOnUse" x="22" y="0" width="15" height="32">
<rect x="22" width="15" height="32" fill="#D9D9D9"/>
</mask>
<g mask="url(#mask0_45_30)">
<line y1="-0.5" x2="50.7721" y2="-0.5" transform="matrix(0.581299 -0.81369 0.71694 0.697135 21 43.313)" stroke="#D83232"/>
<line y1="-0.5" x2="50.7721" y2="-0.5" transform="matrix(0.581299 -0.81369 0.71694 0.697135 22 44.4796)" stroke="#D83232"/>
<line y1="-0.5" x2="50.7721" y2="-0.5" transform="matrix(0.581299 -0.81369 0.71694 0.697135 23 45.6463)" stroke="#D83232"/>
<line y1="-0.5" x2="50.7721" y2="-0.5" transform="matrix(0.581299 -0.81369 0.71694 0.697135 24 46.813)" stroke="#D83232"/>
<line y1="-0.5" x2="50.7721" y2="-0.5" transform="matrix(0.581299 -0.81369 0.71694 0.697135 25 47.9796)" stroke="#D83232"/>
<line y1="-0.5" x2="50.7721" y2="-0.5" transform="matrix(0.581299 -0.81369 0.71694 0.697135 26 49.1463)" stroke="#D83232"/>
<line y1="-0.5" x2="50.7721" y2="-0.5" transform="matrix(0.581299 -0.81369 0.71694 0.697135 27 50.313)" stroke="#D83232"/>
<line y1="-0.5" x2="50.7721" y2="-0.5" transform="matrix(0.581299 -0.81369 0.71694 0.697135 28 51.4796)" stroke="#D83232"/>
<line y1="-0.5" x2="50.7721" y2="-0.5" transform="matrix(0.581299 -0.81369 0.71694 0.697135 29 52.6463)" stroke="#D83232"/>
<line y1="-0.5" x2="50.7721" y2="-0.5" transform="matrix(0.581299 -0.81369 0.71694 0.697135 30 53.813)" stroke="#D83232"/>
<line y1="-0.5" x2="50.7721" y2="-0.5" transform="matrix(0.581299 -0.81369 0.71694 0.697135 31 54.9796)" stroke="#D83232"/>
<line y1="-0.5" x2="50.7721" y2="-0.5" transform="matrix(0.581299 -0.81369 0.71694 0.697135 32 56.1463)" stroke="#D83232"/>
<line y1="-0.5" x2="50.7721" y2="-0.5" transform="matrix(0.581299 -0.81369 0.71694 0.697135 33 57.313)" stroke="#D83232"/>
<line y1="-0.5" x2="50.7721" y2="-0.5" transform="matrix(0.581299 -0.81369 0.71694 0.697135 34 58.4796)" stroke="#D83232"/>
<line y1="-0.5" x2="50.7721" y2="-0.5" transform="matrix(0.581299 -0.81369 0.71694 0.697135 35 59.6463)" stroke="#D83232"/>
<line y1="-0.5" x2="50.7721" y2="-0.5" transform="matrix(0.581299 -0.81369 0.71694 0.697135 16 37.4796)" stroke="#D83232"/>
<line y1="-0.5" x2="50.7721" y2="-0.5" transform="matrix(0.581299 -0.81369 0.71694 0.697135 17 38.6463)" stroke="#D83232"/>
<line y1="-0.5" x2="50.7721" y2="-0.5" transform="matrix(0.581299 -0.81369 0.71694 0.697135 18 39.813)" stroke="#D83232"/>
<line y1="-0.5" x2="50.7721" y2="-0.5" transform="matrix(0.581299 -0.81369 0.71694 0.697135 19 40.9796)" stroke="#D83232"/>
<line y1="-0.5" x2="50.7721" y2="-0.5" transform="matrix(0.581299 -0.81369 0.71694 0.697135 20 42.1463)" stroke="#D83232"/>
<line y1="-0.5" x2="50.7721" y2="-0.5" transform="matrix(0.581299 -0.81369 0.71694 0.697135 1 19.9796)" stroke="#D83232"/>
<line y1="-0.5" x2="50.7721" y2="-0.5" transform="matrix(0.581299 -0.81369 0.71694 0.697135 2 21.1463)" stroke="#D83232"/>
<line y1="-0.5" x2="50.7721" y2="-0.5" transform="matrix(0.581299 -0.81369 0.71694 0.697135 3 22.313)" stroke="#D83232"/>
<line y1="-0.5" x2="50.7721" y2="-0.5" transform="matrix(0.581299 -0.81369 0.71694 0.697135 4 23.4796)" stroke="#D83232"/>
<line y1="-0.5" x2="50.7721" y2="-0.5" transform="matrix(0.581299 -0.81369 0.71694 0.697135 5 24.6463)" stroke="#D83232"/>
<line y1="-0.5" x2="50.7721" y2="-0.5" transform="matrix(0.581299 -0.81369 0.71694 0.697135 6 25.813)" stroke="#D83232"/>
<line y1="-0.5" x2="50.7721" y2="-0.5" transform="matrix(0.581299 -0.81369 0.71694 0.697135 7 26.9796)" stroke="#D83232"/>
<line y1="-0.5" x2="50.7721" y2="-0.5" transform="matrix(0.581299 -0.81369 0.71694 0.697135 8 28.1463)" stroke="#D83232"/>
<line y1="-0.5" x2="50.7721" y2="-0.5" transform="matrix(0.581299 -0.81369 0.71694 0.697135 9 29.313)" stroke="#D83232"/>
<line y1="-0.5" x2="50.7721" y2="-0.5" transform="matrix(0.581299 -0.81369 0.71694 0.697135 10 30.4796)" stroke="#D83232"/>
<line y1="-0.5" x2="50.7721" y2="-0.5" transform="matrix(0.581299 -0.81369 0.71694 0.697135 11 31.6463)" stroke="#D83232"/>
<line y1="-0.5" x2="50.7721" y2="-0.5" transform="matrix(0.581299 -0.81369 0.71694 0.697135 12 32.813)" stroke="#D83232"/>
<line y1="-0.5" x2="50.7721" y2="-0.5" transform="matrix(0.581299 -0.81369 0.71694 0.697135 13 33.9796)" stroke="#D83232"/>
<line y1="-0.5" x2="50.7721" y2="-0.5" transform="matrix(0.581299 -0.81369 0.71694 0.697135 14 35.1463)" stroke="#D83232"/>
<line y1="-0.5" x2="50.7721" y2="-0.5" transform="matrix(0.581299 -0.81369 0.71694 0.697135 15 36.313)" stroke="#D83232"/>
<line y1="-0.5" x2="50.7721" y2="-0.5" transform="matrix(0.581299 -0.81369 0.71694 0.697135 -4 14.1463)" stroke="#D83232"/>
<line y1="-0.5" x2="50.7721" y2="-0.5" transform="matrix(0.581299 -0.81369 0.71694 0.697135 -3 15.313)" stroke="#D83232"/>
<line y1="-0.5" x2="50.7721" y2="-0.5" transform="matrix(0.581299 -0.81369 0.71694 0.697135 -2 16.4796)" stroke="#D83232"/>
<line y1="-0.5" x2="50.7721" y2="-0.5" transform="matrix(0.581299 -0.81369 0.71694 0.697135 -1 17.6463)" stroke="#D83232"/>
<line y1="-0.5" x2="50.7721" y2="-0.5" transform="matrix(0.581299 -0.81369 0.71694 0.697135 0 18.813)" stroke="#D83232"/>
</g>
<path d="M15.8511 7.23954V24.7605H12.0766V10.251H4.7745V24.7605H1V7.23954H15.8511Z" fill="white"/>
<path d="M21.9701 7.23954H25.7798V18.2586H25.9298L33.7345 7.23954H37.0769V24.7605H33.2583V13.7329H33.126L25.2772 24.7605H21.9701V7.23954Z" fill="white"/>
<path d="M53.6419 24.7605L47.839 17.2918H46.5338V24.7605H42.7152V7.23954H46.5338V14.2376H47.3011L53.2979 7.23954H58.0513L51.005 15.3669L58.3776 24.7605H53.6419Z" fill="white"/>
<path d="M77.6986 13.3736H73.8359C73.7653 12.8888 73.6213 12.4582 73.4037 12.0817C73.1862 11.6996 72.9069 11.3745 72.566 11.1065C72.225 10.8384 71.831 10.6331 71.3842 10.4905C70.9433 10.3479 70.4641 10.2766 69.9467 10.2766C69.0119 10.2766 68.1976 10.5019 67.5039 10.9525C66.8101 11.3973 66.2722 12.0475 65.89 12.903C65.5079 13.7529 65.3168 14.7852 65.3168 16C65.3168 17.2491 65.5079 18.2985 65.89 19.1483C66.2781 19.9981 66.819 20.6397 67.5127 21.0732C68.2065 21.5067 69.009 21.7234 69.9203 21.7234C70.4318 21.7234 70.9051 21.6578 71.3401 21.5266C71.7811 21.3954 72.172 21.2044 72.513 20.9534C72.854 20.6968 73.1362 20.3859 73.3597 20.0209C73.5889 19.6559 73.7477 19.2395 73.8359 18.7719L77.6986 18.789C77.5986 19.5932 77.3487 20.3688 76.9489 21.116C76.555 21.8574 76.023 22.5219 75.3527 23.1093C74.6884 23.6911 73.8947 24.153 72.9716 24.4952C72.0545 24.8318 71.0168 25 69.8585 25C68.2476 25 66.8072 24.6464 65.5373 23.9392C64.2732 23.2319 63.2738 22.2082 62.5388 20.8679C61.8098 19.5276 61.4453 17.9049 61.4453 16C61.4453 14.0894 61.8157 12.4639 62.5565 11.1236C63.2973 9.78327 64.3026 8.76236 65.5725 8.06084C66.8425 7.35361 68.2711 7 69.8585 7C70.9051 7 71.8751 7.14259 72.7688 7.42776C73.6683 7.71293 74.465 8.12928 75.1587 8.67681C75.8525 9.21863 76.4169 9.88308 76.8519 10.6702C77.2929 11.4572 77.5751 12.3584 77.6986 13.3736Z" fill="white"/>
<path d="M82.9202 24.7605V7.23954H95.0903V10.2937H86.7388V14.4686H94.4642V17.5228H86.7388V21.7063H95.1256V24.7605H82.9202Z" fill="white"/>
<path d="M99.6308 24.7605V21.7833L100.142 21.7405C100.801 21.6892 101.333 21.4468 101.738 21.0133C102.144 20.5741 102.447 19.8755 102.647 18.9173C102.853 17.9534 102.985 16.6587 103.044 15.0333L103.344 7.23954H115.602V24.7605H111.889V10.2082H106.889L106.607 16.308C106.512 18.27 106.271 19.8726 105.883 21.116C105.501 22.3593 104.89 23.2776 104.049 23.8707C103.214 24.4639 102.071 24.7605 100.618 24.7605H99.6308Z" fill="white"/>
<path d="M123.747 13.7158H128.051C129.485 13.7158 130.72 13.9411 131.755 14.3916C132.795 14.8365 133.598 15.4667 134.162 16.2823C134.727 17.0979 135.006 18.0589 135 19.1654C135.006 20.2662 134.727 21.2386 134.162 22.0827C133.598 22.9211 132.795 23.577 131.755 24.0504C130.72 24.5238 129.485 24.7605 128.051 24.7605H121.304V7.23954H125.114V21.7833H128.051C128.738 21.7833 129.318 21.6635 129.788 21.424C130.258 21.1787 130.614 20.8565 130.855 20.4572C131.102 20.0523 131.222 19.6103 131.217 19.1312C131.222 18.4354 130.952 17.8479 130.405 17.3688C129.864 16.884 129.079 16.6416 128.051 16.6416H123.747V13.7158Z" fill="white"/>
<path d="M173.038 11L170.234 7.27983H169.604V11H167.759V2.27273H169.604V5.75852H169.974L172.872 2.27273H175.169L171.764 6.32102L175.327 11H173.038ZM178.959 11H176.982L179.994 2.27273H182.372L185.381 11H183.403L181.217 4.26705H181.149L178.959 11ZM178.835 7.5696H183.506V9.00994H178.835V7.5696ZM187.631 11V2.27273H189.476V5.87358H193.222V2.27273H195.063V11H193.222V7.39489H189.476V11H187.631ZM206.192 9.52557L206.085 13.0625H204.33V11H203.716V9.52557H206.192ZM197.784 11V2.27273H199.557V9.51705H203.188V2.27273H204.982V11H197.784ZM208.179 3.79403V2.27273H215.347V3.79403H212.675V11H210.851V3.79403H208.179ZM225.349 6.63636C225.349 7.58807 225.168 8.39773 224.808 9.06534C224.45 9.73295 223.961 10.2429 223.342 10.5952C222.725 10.9446 222.032 11.1193 221.262 11.1193C220.487 11.1193 219.79 10.9432 219.174 10.5909C218.558 10.2386 218.07 9.72869 217.712 9.06108C217.354 8.39347 217.175 7.58523 217.175 6.63636C217.175 5.68466 217.354 4.875 217.712 4.20739C218.07 3.53977 218.558 3.03125 219.174 2.68182C219.79 2.32955 220.487 2.15341 221.262 2.15341C222.032 2.15341 222.725 2.32955 223.342 2.68182C223.961 3.03125 224.45 3.53977 224.808 4.20739C225.168 4.875 225.349 5.68466 225.349 6.63636ZM223.478 6.63636C223.478 6.01989 223.386 5.5 223.201 5.0767C223.019 4.65341 222.762 4.33239 222.43 4.11364C222.097 3.89489 221.708 3.78551 221.262 3.78551C220.816 3.78551 220.427 3.89489 220.094 4.11364C219.762 4.33239 219.504 4.65341 219.319 5.0767C219.137 5.5 219.046 6.01989 219.046 6.63636C219.046 7.25284 219.137 7.77273 219.319 8.19602C219.504 8.61932 219.762 8.94034 220.094 9.15909C220.427 9.37784 220.816 9.48722 221.262 9.48722C221.708 9.48722 222.097 9.37784 222.43 9.15909C222.762 8.94034 223.019 8.61932 223.201 8.19602C223.386 7.77273 223.478 7.25284 223.478 6.63636ZM227.916 11V2.27273H231.41C232.052 2.27273 232.587 2.3679 233.016 2.55824C233.445 2.74858 233.768 3.01278 233.984 3.35085C234.2 3.68608 234.308 4.07244 234.308 4.50994C234.308 4.85085 234.239 5.15057 234.103 5.40909C233.967 5.66477 233.779 5.875 233.541 6.03977C233.305 6.2017 233.035 6.31676 232.731 6.38494V6.47017C233.063 6.48437 233.374 6.57812 233.664 6.75142C233.957 6.92472 234.194 7.16761 234.376 7.48011C234.558 7.78977 234.649 8.15909 234.649 8.58807C234.649 9.05114 234.533 9.46449 234.303 9.82812C234.076 10.1889 233.739 10.4744 233.293 10.6847C232.847 10.8949 232.298 11 231.644 11H227.916ZM229.761 9.49148H231.265C231.779 9.49148 232.154 9.39347 232.39 9.19744C232.626 8.99858 232.744 8.73437 232.744 8.40483C232.744 8.16335 232.685 7.95028 232.569 7.76562C232.452 7.58097 232.286 7.43608 232.07 7.33097C231.857 7.22585 231.603 7.1733 231.308 7.1733H229.761V9.49148ZM229.761 5.92472H231.129C231.381 5.92472 231.606 5.88068 231.802 5.79261C232.001 5.7017 232.157 5.57386 232.271 5.40909C232.387 5.24432 232.445 5.04688 232.445 4.81676C232.445 4.50142 232.333 4.24716 232.109 4.05398C231.887 3.8608 231.572 3.7642 231.163 3.7642H229.761V5.92472ZM238.553 11H236.576L239.589 2.27273H241.967L244.975 11H242.998L240.812 4.26705H240.744L238.553 11ZM238.43 7.5696H243.1V9.00994H238.43V7.5696ZM247.226 11V2.27273H250.669C251.331 2.27273 251.895 2.39915 252.361 2.65199C252.827 2.90199 253.182 3.25 253.426 3.69602C253.673 4.1392 253.797 4.65057 253.797 5.23011C253.797 5.80966 253.672 6.32102 253.422 6.7642C253.172 7.20739 252.81 7.55256 252.335 7.79972C251.863 8.04687 251.292 8.17045 250.622 8.17045H248.427V6.69176H250.324C250.679 6.69176 250.971 6.63068 251.202 6.50852C251.435 6.38352 251.608 6.21165 251.721 5.9929C251.838 5.77131 251.896 5.51705 251.896 5.23011C251.896 4.94034 251.838 4.6875 251.721 4.47159C251.608 4.25284 251.435 4.08381 251.202 3.96449C250.969 3.84233 250.673 3.78125 250.315 3.78125H249.071V11H247.226ZM257.41 5.49858H259.489C260.182 5.49858 260.779 5.6108 261.279 5.83523C261.782 6.05682 262.17 6.37074 262.442 6.77699C262.715 7.18324 262.85 7.66193 262.847 8.21307C262.85 8.76136 262.715 9.24574 262.442 9.66619C262.17 10.0838 261.782 10.4105 261.279 10.6463C260.779 10.8821 260.182 11 259.489 11H256.229V2.27273H258.07V9.51705H259.489C259.822 9.51705 260.101 9.45739 260.329 9.33807C260.556 9.21591 260.728 9.0554 260.844 8.85653C260.964 8.65483 261.022 8.43466 261.019 8.19602C261.022 7.84943 260.891 7.55682 260.627 7.31818C260.366 7.0767 259.986 6.95597 259.489 6.95597H257.41V5.49858ZM265.4 2.27273V11H263.559V2.27273H265.4Z" fill="white"/>
<path d="M167.759 20.2727H169.599V25.7614H169.672L173.443 20.2727H175.058V29H173.213V23.5071H173.149L169.357 29H167.759V20.2727ZM183.574 20.2727V21.794H179.628V29H177.783V20.2727H183.574ZM185.955 29V20.2727H189.399C190.061 20.2727 190.624 20.3991 191.09 20.652C191.556 20.902 191.911 21.25 192.156 21.696C192.403 22.1392 192.526 22.6506 192.526 23.2301C192.526 23.8097 192.401 24.321 192.151 24.7642C191.901 25.2074 191.539 25.5526 191.065 25.7997C190.593 26.0469 190.022 26.1705 189.352 26.1705H187.157V24.6918H189.053C189.409 24.6918 189.701 24.6307 189.931 24.5085C190.164 24.3835 190.337 24.2116 190.451 23.9929C190.568 23.7713 190.626 23.517 190.626 23.2301C190.626 22.9403 190.568 22.6875 190.451 22.4716C190.337 22.2528 190.164 22.0838 189.931 21.9645C189.698 21.8423 189.403 21.7812 189.045 21.7812H187.801V29H185.955ZM195.867 29.1193V27.6193H196.34C196.575 27.6193 196.766 27.5909 196.911 27.5341C197.056 27.4744 197.171 27.3878 197.256 27.2741C197.344 27.1577 197.418 27.0128 197.477 26.8395L197.584 26.554L194.414 20.2727H196.323L198.377 24.5682L200.094 20.2727H201.977L198.969 27.2869C198.824 27.6108 198.652 27.9119 198.453 28.1903C198.257 28.4687 198.006 28.6932 197.699 28.8636C197.392 29.0341 197 29.1193 196.523 29.1193H195.867ZM204.525 20.2727H206.328V27.517H208.833V20.2727H210.627V27.517H213.103V20.2727H214.897V29H204.525V20.2727ZM223.241 29L220.438 25.2798H219.807V29H217.962V20.2727H219.807V23.7585H220.178L223.075 20.2727H225.372L221.967 24.321L225.53 29H223.241ZM227.658 20.2727H229.499V25.7614H229.571L233.342 20.2727H234.957V29H233.112V23.5071H233.048L229.256 29H227.658V20.2727Z" fill="white"/>
<rect x="145" y="1" width="12" height="12" fill="#D83232"/>
<rect x="145" y="19" width="12" height="12" fill="#D83232"/>
</svg>
