<svg width="30" height="30" viewBox="0 0 30 30" fill="none" xmlns="http://www.w3.org/2000/svg">
<path d="M12.5 1.5C18.5751 1.5 23.5 6.42487 23.5 12.5C23.5 18.5751 18.5751 23.5 12.5 23.5C6.42487 23.5 1.5 18.5751 1.5 12.5C1.5 6.42487 6.42487 1.5 12.5 1.5Z" stroke="white" stroke-width="3"/>
<mask id="path-2-inside-1_7_35" fill="white">
<path d="M20.2929 22.4142C19.9024 22.0237 19.9024 21.3905 20.2929 21L21 20.2929C21.3905 19.9024 22.0237 19.9024 22.4142 20.2929L29.4853 27.364C29.8758 27.7545 29.8758 28.3877 29.4853 28.7782L28.7782 29.4853C28.3877 29.8758 27.7545 29.8758 27.364 29.4853L20.2929 22.4142Z"/>
</mask>
<path d="M27.364 29.4853L29.4853 27.364L27.364 29.4853ZM29.4853 27.364L27.364 29.4853L27.364 29.4853L29.4853 27.364ZM21 20.2929L23.1213 22.4142L23.1213 22.4142L21 20.2929ZM22.4142 20.2929L24.5355 18.1716L24.5355 18.1716L22.4142 20.2929ZM20.2929 21L18.1716 18.8787L18.1716 18.8787L20.2929 21ZM20.2929 22.4142L18.1716 24.5355L20.2929 22.4142ZM20.2929 21L22.4142 23.1213L23.1213 22.4142L21 20.2929L18.8787 18.1716L18.1716 18.8787L20.2929 21ZM22.4142 20.2929L20.2929 22.4142L27.364 29.4853L29.4853 27.364L31.6066 25.2426L24.5355 18.1716L22.4142 20.2929ZM29.4853 28.7782L27.364 26.6569L26.6569 27.364L28.7782 29.4853L30.8995 31.6066L31.6066 30.8995L29.4853 28.7782ZM27.364 29.4853L29.4853 27.364L22.4142 20.2929L20.2929 22.4142L18.1716 24.5355L25.2426 31.6066L27.364 29.4853ZM28.7782 29.4853L26.6569 27.364C27.4379 26.5829 28.7042 26.5829 29.4853 27.364L27.364 29.4853L25.2426 31.6066C26.8047 33.1687 29.3374 33.1687 30.8995 31.6066L28.7782 29.4853ZM29.4853 27.364L27.364 29.4853C26.5829 28.7042 26.5829 27.4379 27.364 26.6569L29.4853 28.7782L31.6066 30.8995C33.1687 29.3374 33.1687 26.8047 31.6066 25.2426L29.4853 27.364ZM21 20.2929L23.1213 22.4142C22.3403 23.1953 21.0739 23.1953 20.2929 22.4142L22.4142 20.2929L24.5355 18.1716C22.9734 16.6095 20.4408 16.6095 18.8787 18.1716L21 20.2929ZM20.2929 21L18.1716 18.8787C16.6095 20.4408 16.6095 22.9734 18.1716 24.5355L20.2929 22.4142L22.4142 20.2929C23.1953 21.0739 23.1953 22.3403 22.4142 23.1213L20.2929 21Z" fill="white" mask="url(#path-2-inside-1_7_35)"/>
</svg>
